<svg xmlns="http://www.w3.org/2000/svg" viewBox="0 0 1280 720" width="1280" height="720">
  <defs>
    <linearGradient id="bg" x1="0" y1="0" x2="1" y2="1"><stop offset="0" stop-color="#0B1220"/><stop offset="0.55" stop-color="#16243B"/><stop offset="1" stop-color="#09101C"/></linearGradient>
    <radialGradient id="glow1"><stop stop-color="#F4A261" stop-opacity=".45"/><stop offset="1" stop-color="#F4A261" stop-opacity="0"/></radialGradient>
    <radialGradient id="glow2"><stop stop-color="#8ED1FC" stop-opacity=".32"/><stop offset="1" stop-color="#8ED1FC" stop-opacity="0"/></radialGradient>
    <linearGradient id="metal" x1="0" y1="0" x2="1" y2="1"><stop stop-color="#E7ECF5"/><stop offset=".5" stop-color="#9AA8BC"/><stop offset="1" stop-color="#4A5A70"/></linearGradient>
    <filter id="shadow" x="-30%" y="-30%" width="160%" height="160%"><feDropShadow dx="0" dy="18" stdDeviation="18" flood-color="#000" flood-opacity=".35"/></filter>
  </defs>
  <rect width="1280" height="720" fill="url(#bg)"/>
  <circle cx="120" cy="80" r="330" fill="url(#glow1)"/>
  <circle cx="1160" cy="610" r="300" fill="url(#glow2)"/>
  <g opacity=".16" stroke="#DCE7F5" fill="none">
    <path d="M0 590H1280M0 510H1280M0 430H1280M0 350H1280M0 270H1280M160 0V720M320 0V720M480 0V720M640 0V720M800 0V720M960 0V720M1120 0V720"/>
  </g>
  <text x="70" y="88" fill="#F4A261" font-family="Arial,sans-serif" font-size="28" font-weight="700" letter-spacing="6">GLOBAL MARKETS</text>
  <g filter="url(#shadow)">
  <path d="M110 510 L250 450 L360 470 L470 330 L590 390 L730 250 L850 310 L1010 170 L1170 230" stroke="#F4A261" stroke-width="12" fill="none" stroke-linecap="round" stroke-linejoin="round"/>
  <path d="M1010 170 L1010 255 M1010 170 L1095 170" stroke="#F6F8FB" stroke-width="10" fill="none" stroke-linecap="round"/>
  <g stroke="#8ED1FC" stroke-width="16" stroke-linecap="round" opacity=".8"><path d="M180 545V420"/><path d="M300 515V380"/><path d="M420 540V410"/><path d="M540 455V300"/><path d="M660 430V275"/><path d="M780 370V220"/></g>
  <circle cx="1010" cy="170" r="24" fill="#F4A261"/>
</g>
  <rect x="70" y="625" width="240" height="5" rx="3" fill="#F4A261" opacity=".8"/>
  <rect x="318" y="625" width="110" height="5" rx="3" fill="#8ED1FC" opacity=".65"/>
</svg>